<svg width="56" height="45" viewBox="0 0 56 45" fill="none" xmlns="http://www.w3.org/2000/svg">
<g clip-path="url(#clip0_106:176)">
<path d="M47.9815 14.357L31.7583 3.42972C30.8315 2.80542 29.554 3.0221 28.9049 3.9137L10.4945 29.2058C9.84553 30.0974 10.0708 31.3263 10.9977 31.9506L27.2209 42.8778C28.1478 43.5021 29.4253 43.2854 30.0743 42.3938L48.4847 17.1018C49.1337 16.2102 48.9084 14.9813 47.9815 14.357Z" fill="#8ECEFC"/>
<path d="M44.6147 14.6071L28.3915 3.67984C27.6964 3.21161 26.7382 3.37412 26.2515 4.04282L7.05763 30.4111C6.57088 31.0798 6.73982 32.0015 7.43498 32.4697L23.6582 43.397C24.3534 43.8652 25.3115 43.7027 25.7982 43.034L44.9921 16.6657C45.4788 15.997 45.3099 15.0753 44.6147 14.6071Z" stroke="#454545" stroke-width="3"/>
<path d="M5.87302 30.1006C4.17936 30.1006 2.91367 29.5313 2.07595 28.3926C1.25644 27.2364 0.84668 25.4933 0.84668 23.1634V13.4408C0.84668 11.3561 1.32928 9.77943 2.29448 8.71083C3.25969 7.64223 4.69839 7.10791 6.61058 7.10791C8.15854 7.10791 9.36049 7.40573 10.2164 8.00134C11.0724 8.59695 11.6642 9.4641 11.992 10.6028C12.3198 11.7415 12.4838 13.2043 12.4838 14.9911H7.89448V12.9678C7.89448 12.4247 7.81253 12.0043 7.64863 11.7064C7.50293 11.4086 7.22976 11.2597 6.82912 11.2597C5.93677 11.2597 5.49058 11.8203 5.49058 12.9415V23.8729C5.49058 24.5561 5.58165 25.0729 5.76375 25.4232C5.94586 25.7736 6.26458 25.9488 6.71985 25.9488C7.17512 25.9488 7.49385 25.7736 7.67595 25.4232C7.85805 25.0729 7.94912 24.5561 7.94912 23.8729V20.6408H6.69253V16.7517H12.4291V29.8904H10.5442L9.75205 27.9984C8.91433 29.3999 7.62131 30.1006 5.87302 30.1006ZM16.7821 23.3473V20.378H23.666V23.3473H16.7821ZM33.8429 30.1006C31.9489 30.1006 30.5103 29.5488 29.5268 28.4451C28.5434 27.324 28.0517 25.7561 28.0517 23.7415V12.994C28.0517 11.0495 28.5434 9.58675 29.5268 8.60572C30.5103 7.60718 31.9489 7.10791 33.8429 7.10791C35.7371 7.10791 37.1757 7.60718 38.1591 8.60572C39.1425 9.58675 39.6342 11.0495 39.6342 12.994V23.7415C39.6342 25.7736 39.1425 27.3415 38.1591 28.4451C37.1757 29.5488 35.7371 30.1006 33.8429 30.1006ZM33.8429 25.9488C34.2619 25.9488 34.544 25.7736 34.6898 25.4232C34.8356 25.0729 34.9083 24.5824 34.9083 23.9517V12.9152C34.9083 12.4247 34.8356 12.0305 34.6898 11.7327C34.5624 11.4174 34.2893 11.2597 33.8703 11.2597C33.0871 11.2597 32.6956 11.8291 32.6956 12.9678V23.978C32.6956 24.6261 32.7776 25.1167 32.9415 25.4495C33.1054 25.7824 33.4059 25.9488 33.8429 25.9488ZM49.8323 30.1006C47.7016 30.1006 46.1626 29.5926 45.2158 28.5765C44.2689 27.5605 43.7953 25.9225 43.7953 23.6627V21.4554H48.4119V24.267C48.4119 25.3882 48.7851 25.9488 49.5319 25.9488C49.9508 25.9488 50.2421 25.8349 50.406 25.6072C50.5699 25.3619 50.6519 24.959 50.6519 24.3984C50.6519 23.6627 50.5607 23.0583 50.3787 22.5853C50.1967 22.0948 49.9597 21.6919 49.6684 21.3765C49.3953 21.0437 48.8943 20.5356 48.166 19.8524L46.1445 17.9079C44.5782 16.4364 43.7953 14.8072 43.7953 13.0203C43.7953 11.0933 44.2504 9.63054 45.1611 8.632C46.0899 7.61595 47.4377 7.10791 49.204 7.10791C51.3167 7.10791 52.8372 7.65097 53.766 8.73711C54.6948 9.80571 55.1592 11.4875 55.1592 13.7824H50.3787L50.3514 12.232C50.3514 11.9342 50.2602 11.6977 50.0782 11.5225C49.9143 11.3473 49.6777 11.2597 49.368 11.2597C49.0036 11.2597 48.7304 11.3561 48.5484 11.5488C48.3664 11.7415 48.2753 12.0043 48.2753 12.3371C48.2753 13.0729 48.7123 13.8349 49.5865 14.6232L52.3182 17.1459C52.9557 17.7415 53.4836 18.3108 53.9026 18.8539C54.3216 19.3794 54.6582 20.0101 54.9133 20.7459C55.1684 21.4641 55.2958 22.3225 55.2958 23.321C55.2958 25.5459 54.8679 27.2364 54.0118 28.3926C53.1742 29.5313 51.7811 30.1006 49.8323 30.1006Z" fill="#212121"/>
<path d="M55.6582 33.1753H0.682617V41.0585H55.6582V33.1753Z" fill="#212121"/>
<path d="M12.5998 37.6883C12.429 37.7935 12.2412 37.8362 12.0398 37.8362C11.49 37.8362 11.0905 37.4584 11.0905 36.9526C11.0905 36.4402 11.49 36.069 12.0432 36.069C12.3129 36.069 12.5383 36.1511 12.7363 36.3351L12.948 36.1314C12.7295 35.8982 12.4085 35.7767 12.0295 35.7767C11.2885 35.7767 10.749 36.2727 10.749 36.9526C10.749 37.6325 11.2885 38.1285 12.0227 38.1285C12.3573 38.1285 12.6885 38.03 12.9276 37.8362V36.9394H12.5998V37.6883ZM14.1925 36.3449C13.9023 36.3449 13.6325 36.4238 13.4447 36.5683L13.5813 36.8048C13.7213 36.6898 13.9399 36.6175 14.155 36.6175C14.4794 36.6175 14.6399 36.7719 14.6399 37.038V37.1004H14.1208C13.5813 37.1004 13.3935 37.3303 13.3935 37.6095C13.3935 37.9117 13.653 38.1219 14.0628 38.1219C14.3462 38.1219 14.5477 38.03 14.6569 37.8723V38.1022H14.9677V37.0511C14.9677 36.5748 14.6877 36.3449 14.1925 36.3449ZM14.1174 37.8789C13.8682 37.8789 13.7179 37.7705 13.7179 37.5964C13.7179 37.4486 13.8101 37.327 14.1345 37.327H14.6399V37.5701C14.5579 37.7705 14.3633 37.8789 14.1174 37.8789ZM16.9638 35.665V36.6241C16.8136 36.4369 16.5882 36.3449 16.3321 36.3449C15.8029 36.3449 15.417 36.6997 15.417 37.2318C15.417 37.7639 15.8029 38.1219 16.3321 38.1219C16.5985 38.1219 16.8307 38.0234 16.9775 37.8263V38.1022H17.2916V35.665H16.9638ZM16.3594 37.846C16.0111 37.846 15.7482 37.6029 15.7482 37.2318C15.7482 36.8606 16.0111 36.6208 16.3594 36.6208C16.7043 36.6208 16.9672 36.8606 16.9672 37.2318C16.9672 37.6029 16.7043 37.846 16.3594 37.846ZM19.3324 36.3613V36.6307C19.1787 36.4402 18.9328 36.3449 18.6631 36.3449C18.1406 36.3449 17.7445 36.6832 17.7445 37.1858C17.7445 37.6883 18.1406 38.03 18.6631 38.03C18.9226 38.03 19.1582 37.9413 19.3153 37.7606V37.8986C19.3153 38.2927 19.1206 38.4832 18.6938 38.4832C18.4275 38.4832 18.1646 38.3946 17.9972 38.2566L17.8402 38.4997C18.0382 38.6705 18.3728 38.7592 18.7041 38.7592C19.3187 38.7592 19.6431 38.48 19.6431 37.8657V36.3613H19.3324ZM18.7006 37.754C18.3353 37.754 18.0758 37.5208 18.0758 37.1858C18.0758 36.8475 18.3353 36.6208 18.7006 36.6208C19.0626 36.6208 19.3221 36.8475 19.3221 37.1858C19.3221 37.5208 19.0626 37.754 18.7006 37.754ZM21.905 37.2416C21.905 36.7062 21.5328 36.3449 21.0104 36.3449C20.488 36.3449 20.1021 36.7161 20.1021 37.2318C20.1021 37.7508 20.4914 38.1219 21.0753 38.1219C21.3758 38.1219 21.625 38.0234 21.7889 37.8394L21.608 37.6358C21.4748 37.777 21.2972 37.846 21.0855 37.846C20.727 37.846 20.4709 37.6424 20.4299 37.3369H21.8982C21.9016 37.3073 21.905 37.2679 21.905 37.2416ZM21.0104 36.611C21.328 36.611 21.5568 36.8179 21.5909 37.1102H20.4299C20.4641 36.8146 20.6963 36.611 21.0104 36.611ZM23.2753 37.7738C23.207 37.8263 23.1148 37.8559 23.0192 37.8559C22.8383 37.8559 22.7358 37.7508 22.7358 37.5635V36.6208H23.2548V36.3613H22.7358V35.9803H22.408V36.3613H22.1007V36.6208H22.408V37.5767C22.408 37.9281 22.6163 38.1219 22.9817 38.1219C23.1285 38.1219 23.2788 38.0825 23.3778 38.0004L23.2753 37.7738ZM25.8179 38.1285C26.5453 38.1285 27.0848 37.6292 27.0848 36.9526C27.0848 36.2759 26.5453 35.7767 25.8179 35.7767C25.0838 35.7767 24.5443 36.2792 24.5443 36.9526C24.5443 37.6259 25.0838 38.1285 25.8179 38.1285ZM25.8179 37.8362C25.2818 37.8362 24.8857 37.4617 24.8857 36.9526C24.8857 36.4435 25.2818 36.069 25.8179 36.069C26.3472 36.069 26.7433 36.4435 26.7433 36.9526C26.7433 37.4617 26.3472 37.8362 25.8179 37.8362ZM28.5252 36.3449C28.2384 36.3449 28.0062 36.4467 27.873 36.6241V36.3613H27.5589V38.1022H27.8867V37.2055C27.8867 36.8278 28.112 36.6274 28.4603 36.6274C28.7711 36.6274 28.9486 36.7949 28.9486 37.1365V38.1022H29.2764V37.1004C29.2764 36.588 28.9657 36.3449 28.5252 36.3449ZM29.8831 38.1022H30.2109V35.665H29.8831V38.1022ZM31.0007 36.0263C31.1304 36.0263 31.2226 35.9343 31.2226 35.8161C31.2226 35.7044 31.127 35.6157 31.0007 35.6157C30.8743 35.6157 30.7787 35.7077 30.7787 35.8227C30.7787 35.9376 30.8743 36.0263 31.0007 36.0263ZM30.8368 38.1022H31.1646V36.3613H30.8368V38.1022ZM32.7568 36.3449C32.47 36.3449 32.2378 36.4467 32.1046 36.6241V36.3613H31.7905V38.1022H32.1183V37.2055C32.1183 36.8278 32.3436 36.6274 32.6919 36.6274C33.0027 36.6274 33.1802 36.7949 33.1802 37.1365V38.1022H33.508V37.1004C33.508 36.588 33.1973 36.3449 32.7568 36.3449ZM35.7602 37.2416C35.7602 36.7062 35.388 36.3449 34.8656 36.3449C34.3431 36.3449 33.9574 36.7161 33.9574 37.2318C33.9574 37.7508 34.3465 38.1219 34.9304 38.1219C35.2309 38.1219 35.4802 38.0234 35.6441 37.8394L35.4631 37.6358C35.3299 37.777 35.1524 37.846 34.9407 37.846C34.5821 37.846 34.326 37.6424 34.2851 37.3369H35.7534C35.7568 37.3073 35.7602 37.2679 35.7602 37.2416ZM34.8656 36.611C35.1831 36.611 35.4119 36.8179 35.446 37.1102H34.2851C34.3192 36.8146 34.5514 36.611 34.8656 36.611ZM37.8769 38.1285C38.5086 38.1285 38.8023 37.8263 38.8023 37.4748C38.8023 36.6307 37.3545 36.9821 37.3545 36.4205C37.3545 36.2201 37.5286 36.0559 37.935 36.0559C38.1467 36.0559 38.3823 36.115 38.5906 36.2431L38.7033 35.9803C38.5052 35.8489 38.215 35.7767 37.935 35.7767C37.3067 35.7767 37.0199 36.0789 37.0199 36.4336C37.0199 37.2876 38.4677 36.9329 38.4677 37.4946C38.4677 37.6949 38.2901 37.8493 37.8769 37.8493C37.5696 37.8493 37.2657 37.7376 37.0881 37.5832L36.9618 37.8394C37.153 38.0102 37.5116 38.1285 37.8769 38.1285ZM40.2197 36.3449C39.9431 36.3449 39.7178 36.4402 39.5812 36.6077V35.665H39.2534V38.1022H39.5812V37.2055C39.5812 36.8278 39.8065 36.6274 40.1548 36.6274C40.4656 36.6274 40.6431 36.7949 40.6431 37.1365V38.1022H40.9709V37.1004C40.9709 36.588 40.6602 36.3449 40.2197 36.3449ZM42.3627 38.1219C42.9057 38.1219 43.3018 37.7508 43.3018 37.2318C43.3018 36.7128 42.9057 36.3449 42.3627 36.3449C41.8198 36.3449 41.4203 36.7128 41.4203 37.2318C41.4203 37.7508 41.8198 38.1219 42.3627 38.1219ZM42.3627 37.846C42.0144 37.846 41.7515 37.6029 41.7515 37.2318C41.7515 36.8606 42.0144 36.6208 42.3627 36.6208C42.711 36.6208 42.9705 36.8606 42.9705 37.2318C42.9705 37.6029 42.711 37.846 42.3627 37.846ZM44.7144 36.3449C44.448 36.3449 44.2159 36.4435 44.069 36.6373V36.3613H43.7549V38.7394H44.0827V37.8394C44.2329 38.0267 44.4583 38.1219 44.7144 38.1219C45.2437 38.1219 45.6295 37.7672 45.6295 37.2318C45.6295 36.6997 45.2437 36.3449 44.7144 36.3449ZM44.6871 37.846C44.3422 37.846 44.0793 37.6029 44.0793 37.2318C44.0793 36.8639 44.3422 36.6208 44.6871 36.6208C45.0354 36.6208 45.2983 36.8639 45.2983 37.2318C45.2983 37.6029 45.0354 37.846 44.6871 37.846Z" fill="white"/>
</g>
<defs>
<clipPath id="clip0_106:176">
<rect width="56" height="45" fill="white"/>
</clipPath>
</defs>
</svg>
