<svg width="526" height="351" viewBox="0 0 526 351" fill="none" xmlns="http://www.w3.org/2000/svg">
<path d="M101.5 0L500 62.5V350.5H0L101.5 0Z" fill="#B5C5F2"/>
<g clip-path="url(#clip0_221_109)">
<path d="M145.682 306.095L160.7 228.123H227.38L241.737 306.095H145.682Z" fill="white" stroke="#B9C6E4" stroke-miterlimit="10"/>
<path d="M178.481 227.456C178.481 219.675 185.33 213.34 193.74 213.34C202.15 213.34 208.998 219.675 208.998 227.456" fill="white"/>
<path d="M178.481 227.456C178.481 219.675 185.33 213.34 193.74 213.34C202.15 213.34 208.998 219.675 208.998 227.456" stroke="#B9C6E4" stroke-miterlimit="10"/>
<path d="M318.33 185.386L340.256 170.269L354.794 194.389L363.865 163.211C364.346 160.766 366.028 158.709 368.43 157.542L385.731 154.93L376.901 223.177L358.519 226.678L335.991 210.839L318.33 185.386Z" fill="#3F70F9"/>
<path d="M339.415 107.08L339.836 97.8542L331.486 102.8L328.963 98.8546L337.794 94.6864L328.963 90.4627L331.426 86.5168L339.776 91.5186L339.415 82.2931H344.281L343.861 91.5186L352.211 86.5168L354.674 90.4627L345.783 94.6308L354.674 98.799L352.211 102.745L343.861 97.8542L344.281 107.08H339.415Z" fill="#B9C6E4"/>
<path d="M422.315 306.54C422.315 306.54 457.938 304.539 459.019 304.428C459.56 304.372 458.478 299.426 460.761 297.426L456.916 285.81C456.916 285.81 426.7 285.366 426.22 285.31C425.499 285.143 420.873 306.262 422.315 306.54Z" fill="#FBD7AD"/>
<path d="M356.476 230.346H241.737V312.097H356.476V230.346Z" fill="#F7C689" stroke="#F27932" stroke-miterlimit="10"/>
<path d="M334.91 230.902H309.319V258.356H334.91V230.902Z" fill="white"/>
<path d="M282.707 230.346H241.737V312.097H282.707V230.346Z" fill="#F7C689" stroke="#F27932" stroke-miterlimit="10"/>
<path d="M352.992 295.536L247.444 197.834" stroke="#F27932" stroke-miterlimit="10"/>
<path d="M349.147 299.093L243.54 201.447" stroke="#F27932" stroke-miterlimit="10"/>
<path d="M345.242 302.65L239.695 205.004" stroke="#F27932" stroke-miterlimit="10"/>
<path d="M341.398 306.262L235.851 208.56" stroke="#F27932" stroke-miterlimit="10"/>
<path d="M337.553 309.819L231.946 212.117" stroke="#F27932" stroke-miterlimit="10"/>
<path d="M333.648 313.376L228.101 215.73" stroke="#F27932" stroke-miterlimit="10"/>
<path d="M329.804 316.988L224.257 219.286" stroke="#F27932" stroke-miterlimit="10"/>
<path d="M325.959 320.545L220.352 222.899" stroke="#F27932" stroke-miterlimit="10"/>
<path d="M322.054 324.102L216.507 226.456" stroke="#F27932" stroke-miterlimit="10"/>
<path d="M318.209 327.714L212.662 230.013" stroke="#F27932" stroke-miterlimit="10"/>
<path d="M314.365 331.271L208.758 233.569" stroke="#F27932" stroke-miterlimit="10"/>
<path d="M310.46 334.883L204.913 237.182" stroke="#F27932" stroke-miterlimit="10"/>
<path d="M306.616 338.44L201.009 240.739" stroke="#F27932" stroke-miterlimit="10"/>
<path d="M302.771 341.997L197.164 244.351" stroke="#F27932" stroke-miterlimit="10"/>
<path d="M298.867 345.609L193.319 247.908" stroke="#F27932" stroke-miterlimit="10"/>
<path d="M295.022 349.166L189.415 251.465" stroke="#F27932" stroke-miterlimit="10"/>
<path d="M291.178 352.723L185.57 255.077" stroke="#F27932" stroke-miterlimit="10"/>
<path d="M287.273 356.335L181.726 258.634" stroke="#F27932" stroke-miterlimit="10"/>
<path d="M283.428 359.892L177.82 262.191" stroke="#F27932" stroke-miterlimit="10"/>
<path d="M279.583 363.449L173.976 265.803" stroke="#F27932" stroke-miterlimit="10"/>
<path d="M275.678 367.062L170.131 269.36" stroke="#F27932" stroke-miterlimit="10"/>
<path d="M271.834 370.618L166.227 272.917" stroke="#F27932" stroke-miterlimit="10"/>
<path d="M211.16 265.803H252.19L282.706 230.346H241.737L211.16 265.803Z" fill="#F27932"/>
<path opacity="0.5" d="M356.476 291.868L316.828 312.153H356.476V291.868Z" fill="#F27932"/>
<path d="M361.702 277.029C362.363 276.807 433.909 283.754 433.909 283.754L442.92 306.762L365.967 308.04" fill="#495894"/>
<path d="M358.519 273.528C358.519 273.528 364.826 299.537 365.127 300.482C365.307 300.982 367.71 305.984 369.992 307.763L386.512 308.04C386.512 308.04 379.424 275.64 379.424 275.14C379.424 274.473 358.579 272.139 358.519 273.528Z" fill="#FBD7AD"/>
<path d="M387.533 305.54C387.533 305.54 387.473 308.485 387.473 309.485L387.413 313.82C387.413 315.098 386.272 316.21 384.83 316.21L331.005 317.488C329.023 317.544 329.383 314.209 330.104 313.209C331.365 311.43 335.33 310.486 337.313 309.541C341.518 307.596 345.723 305.651 349.627 303.205C353.412 300.816 356.295 297.537 360.38 295.647C362.783 294.536 365.426 296.87 366.988 298.481C368.55 300.093 369.872 301.872 371.914 302.927C375.879 304.873 387.533 305.54 387.533 305.54Z" fill="#4B4065"/>
<path d="M329.623 314.265L386.812 312.931" stroke="white" stroke-miterlimit="10"/>
<path d="M340.196 307.651C343.08 307.985 345.363 310.097 345.603 312.82" stroke="white" stroke-miterlimit="10"/>
<path d="M354.373 303.039C354.373 302.538 354.914 302.094 355.454 302.149C355.995 302.149 356.476 302.65 356.416 303.15C356.416 303.65 355.875 304.095 355.334 304.039C354.794 304.039 354.373 303.65 354.373 303.15V303.039Z" stroke="white" stroke-miterlimit="10"/>
<path d="M349.688 305.484C349.688 304.928 350.228 304.484 350.829 304.539C351.43 304.595 351.91 305.039 351.85 305.595C351.85 306.151 351.309 306.595 350.709 306.54C350.168 306.54 349.688 306.095 349.688 305.595V305.484Z" stroke="white" stroke-miterlimit="10"/>
<path d="M350.048 304.706L348.786 303.372" stroke="white" stroke-width="0.75" stroke-miterlimit="10"/>
<path d="M354.673 302.316L352.991 300.538" stroke="white" stroke-width="0.75" stroke-miterlimit="10"/>
<path d="M499.508 307.318L456.436 305.54C456.556 303.594 456.196 300.482 456.316 298.593L445.503 284.754C445.743 284.199 450.549 282.309 452.591 281.587C454.394 280.92 456.316 280.697 457.577 282.087C461.182 286.088 465.627 290.034 468.751 294.035C478.543 295.925 485.151 296.647 491.158 298.204C495.243 299.204 499.027 303.261 499.508 307.318Z" fill="#4B4065"/>
<path d="M407.657 154.763C415.767 152.651 425.859 149.206 426.82 140.314C427.241 136.312 425.739 132.311 422.675 129.421C420.032 126.92 416.308 125.364 414.325 122.363C413.124 120.529 412.643 118.306 411.922 116.25C408.799 108.08 396.424 106.135 388.314 107.08C381.886 107.858 376.119 111.748 372.154 116.194C362.062 127.587 358.338 157.375 394.561 156.319C398.947 156.208 403.392 155.875 407.657 154.763Z" fill="#ED4F2E"/>
<path d="M406.035 130.588C403.212 133.2 407.117 137.424 408.919 139.536C411.502 142.592 413.184 145.927 411.802 149.928C409.399 156.875 401.169 157.653 394.501 156.153C392.159 155.653 389.876 154.43 388.614 152.485C386.932 149.817 387.593 146.427 388.614 143.426C389.576 140.592 390.777 137.757 392.94 135.534C394.441 133.923 396.484 132.756 398.767 132.255C399.848 132.033 400.809 132.311 401.89 132.2C403.212 132.089 404.714 131.199 405.915 130.755" fill="#CC3D2E"/>
<path d="M384.169 112.137C387.113 111.081 390.957 112.137 392.159 115.027C393.661 118.639 389.876 122.474 392.099 125.975C393.12 127.587 395.102 128.587 397.145 128.476C397.505 128.476 397.565 127.92 397.145 127.92C395.222 128.032 393.42 127.087 392.519 125.531C391.498 123.697 392.219 121.585 392.699 119.751C393.12 118.028 393.42 116.194 392.579 114.527C391.918 113.249 390.717 112.248 389.335 111.748C387.653 111.137 385.731 111.081 384.049 111.692C383.628 111.748 383.809 112.304 384.169 112.137Z" fill="#ED4F2E"/>
<path d="M416.789 102.189C423.637 100.633 430.605 104.468 432.287 110.859C432.948 113.415 432.708 116.083 431.566 118.473C430.545 120.64 428.443 122.696 425.86 122.641C422.976 122.585 420.994 120.029 419.732 117.639C418.831 115.916 417.99 113.971 416.428 112.637C414.626 111.081 412.163 111.359 410.361 109.97C406.276 106.802 413.845 102.856 416.789 102.189Z" fill="#ED4F2E"/>
<path d="M404.654 109.247C404.835 107.747 406.276 106.691 407.838 106.857C407.898 106.857 408.018 106.857 408.078 106.913C409.04 107.246 409.821 107.747 410.421 108.469C411.442 109.469 412.344 110.525 413.245 111.637C413.785 112.193 414.146 112.915 414.266 113.638C414.326 114.916 413.185 115.972 411.803 115.972C411.683 115.972 411.503 115.972 411.382 115.972" fill="white"/>
<path d="M404.654 109.247C404.835 107.747 406.276 106.691 407.838 106.857C407.898 106.857 408.018 106.857 408.078 106.913C409.04 107.246 409.821 107.747 410.421 108.469C411.442 109.469 412.344 110.525 413.245 111.637C413.785 112.193 414.146 112.915 414.266 113.638C414.326 114.916 413.185 115.972 411.803 115.972C411.683 115.972 411.503 115.972 411.382 115.972" stroke="#F7C689" stroke-miterlimit="10"/>
<path d="M412.943 111.026C414.145 111.359 415.406 111.637 416.428 112.526C417.989 113.86 418.83 115.805 419.732 117.528C420.873 119.64 422.555 121.863 424.958 122.419C426.82 121.641 428.082 119.973 428.262 118.084C428.382 116.194 427.601 114.305 426.159 112.971C424.657 111.637 422.795 110.803 420.813 110.525C418.17 110.192 415.526 110.581 412.943 111.026Z" fill="#CC3D2E"/>
<path d="M385.191 111.859C382.067 112.471 379.364 114.193 377.682 116.639C375.94 119.028 375.038 121.918 374.438 124.753C373.777 128.31 373.717 131.922 374.258 135.479C374.978 139.703 380.445 141.981 383.328 140.592L382.367 152.04L374.678 154.263L382.728 173.715L399.127 167.046L404.474 150.651L400.389 150.262L399.368 137.035C399.308 137.035 408.258 107.969 385.191 111.859Z" fill="#FBD7AD"/>
<path d="M397.625 127.976C398.706 127.031 399.968 126.309 401.289 125.809C402.671 125.308 404.233 125.42 405.494 126.198C406.816 127.198 407.237 128.921 406.576 130.366C405.855 131.811 404.353 132.756 402.671 132.867C400.989 132.978 399.307 132.533 397.985 131.533" fill="#FBD7AD"/>
<path d="M382.607 125.531C383.148 123.864 384.65 122.974 386.452 122.696C388.374 122.474 390.237 123.197 391.378 124.642C390.717 126.031 388.915 126.809 387.233 126.92C385.551 127.031 383.929 126.531 382.607 125.531Z" fill="white"/>
<path d="M382.908 125.253C382.908 125.308 382.968 125.308 382.968 125.364C383.208 125.809 385.191 126.753 386.512 125.864C387.413 125.253 388.014 123.308 387.774 122.641C386.752 122.363 385.551 122.808 384.65 123.308C384.229 123.53 382.668 124.642 382.908 125.253Z" fill="#B9C6E4"/>
<path d="M382.847 125.586C383.208 124.586 383.928 123.752 384.95 123.197C385.731 122.808 386.692 122.696 387.533 122.863C388.374 122.974 389.155 123.252 389.876 123.641C390.416 123.919 390.897 124.308 391.197 124.753C391.317 124.975 391.738 124.753 391.618 124.53C391.017 123.586 389.755 123.03 388.674 122.696C387.232 122.196 385.61 122.307 384.349 123.085C383.448 123.697 382.787 124.53 382.427 125.475C382.306 125.753 382.727 125.864 382.847 125.586Z" fill="#4B4065"/>
<path d="M391.377 120.751C390.717 119.862 389.755 119.251 388.614 119.028C387.473 118.806 386.271 119.028 385.25 119.64C387.413 120.029 389.215 120.362 391.377 120.751Z" fill="#ED4F2E"/>
<path d="M385.19 119.862C385.07 119.806 384.95 119.695 385.01 119.584C385.01 119.529 385.07 119.473 385.13 119.417C386.151 118.806 387.473 118.584 388.675 118.806C389.876 119.028 390.897 119.695 391.618 120.64C391.678 120.751 391.678 120.862 391.558 120.974C391.498 121.029 391.438 121.029 391.378 121.029C390.296 120.862 389.275 120.64 388.314 120.473C387.353 120.307 386.272 120.029 385.19 119.862ZM388.675 119.306L388.494 119.251C387.653 119.084 386.752 119.195 385.911 119.529L388.254 119.973L390.657 120.418C390.236 119.862 389.516 119.473 388.675 119.306Z" fill="#ED4F2E"/>
<path d="M402.251 132.478C402.011 130.588 400.749 129.532 399.428 130.088C398.106 130.644 396.784 132.533 396.304 134.645C395.823 136.757 396.244 138.813 397.265 139.758C398.286 140.703 399.788 140.481 401.05 139.313" stroke="white" stroke-miterlimit="10"/>
<path d="M379.423 124.642L378.462 125.586C378.222 125.753 378.041 126.031 377.981 126.253C377.861 126.642 378.041 127.087 378.402 127.365C378.702 127.643 379.123 127.865 379.483 127.976" stroke="#4B4065" stroke-width="0.75" stroke-linecap="round" stroke-linejoin="round"/>
<path d="M376.96 130.477L383.628 131.477C382.908 132.366 382.006 133.089 380.925 133.589C379.904 133.978 378.763 133.923 377.861 133.422C376.96 132.867 376.6 131.422 376.96 130.477Z" stroke="#ED4F2E" stroke-linecap="round" stroke-linejoin="round"/>
<path d="M377.38 116.805C377.14 117.194 376.9 117.639 376.72 118.084L378.522 118.584C378.642 118.639 378.762 118.528 378.762 118.417C378.762 118.362 378.762 118.306 378.762 118.25C378.462 117.695 377.981 117.194 377.38 116.805Z" fill="#ED4F2E"/>
<path d="M378.462 118.751C377.801 118.584 377.2 118.417 376.66 118.25C376.6 118.25 376.54 118.195 376.479 118.139C376.479 118.084 376.479 118.028 376.479 117.973C376.66 117.583 376.9 117.139 377.14 116.694C377.2 116.639 377.2 116.583 377.321 116.583C377.381 116.583 377.441 116.583 377.501 116.639C378.101 117.028 378.642 117.583 379.003 118.195C379.123 118.417 379.063 118.639 378.822 118.751C378.702 118.806 378.582 118.806 378.462 118.751ZM377.08 117.917L378.582 118.306C378.282 117.861 377.921 117.472 377.501 117.139C377.321 117.417 377.2 117.639 377.08 117.917Z" fill="#ED4F2E"/>
<path d="M375.639 120.362C375.278 121.529 374.918 122.696 374.678 123.919V124.03C375.519 124.141 376.42 123.919 377.141 123.53C377.081 122.307 376.54 121.196 375.639 120.362Z" fill="white"/>
<path d="M375.339 123.975C375.759 123.53 376.059 122.974 376.059 122.363C376.18 121.752 376.12 121.085 375.819 120.529C375.759 120.529 375.639 120.418 375.579 120.418C375.098 121.585 374.738 122.807 374.558 124.03C374.858 124.086 375.098 124.03 375.339 123.975Z" fill="#B9C6E4"/>
<path d="M375.579 120.473C376.42 121.14 376.901 122.196 376.901 123.252C376.901 123.363 377.021 123.419 377.141 123.419C377.261 123.419 377.321 123.308 377.321 123.252C377.381 122.085 376.841 120.974 375.88 120.195C375.82 120.14 375.639 120.14 375.579 120.195C375.519 120.251 375.519 120.418 375.579 120.473Z" fill="#4B4065"/>
<path opacity="0.85" d="M277.421 120.196H309.68C318.15 120.196 324.998 126.531 324.998 134.367V160.154C324.998 167.99 318.15 174.326 309.68 174.326H277.421C268.951 174.326 262.103 167.99 262.103 160.154V134.367C262.103 126.531 268.951 120.196 277.421 120.196Z" fill="white" stroke="#EF749B" stroke-miterlimit="10"/>
<path d="M292.499 154.041C299.732 154.041 305.595 148.617 305.595 141.925C305.595 135.234 299.732 129.81 292.499 129.81C285.266 129.81 279.403 135.234 279.403 141.925C279.403 148.617 285.266 154.041 292.499 154.041Z" stroke="#EF749B" stroke-miterlimit="10"/>
<path d="M271.293 166.045H290.096" stroke="#EF749B" stroke-miterlimit="10"/>
<path d="M271.293 160.043H303.972" stroke="#EF749B" stroke-miterlimit="10"/>
<path d="M340.257 170.269L334.49 159.098C332.567 153.43 331.666 150.095 330.645 146.427C330.285 145.149 329.323 144.093 328.002 143.593C323.496 141.814 318.691 140.203 314.245 138.369C313.044 139.591 314.245 141.925 315.747 142.815C317.249 143.704 319.171 143.982 320.373 145.204C322.055 146.816 321.874 149.373 321.754 151.596C321.634 153.819 322.115 156.486 324.277 157.487C324.277 157.487 324.938 169.769 324.938 174.382C325.839 175.993 326.5 177.716 326.981 179.494" fill="#FBD7AD"/>
<path opacity="0.3" d="M381.647 141.259L390.717 138.369C390.717 138.369 388.855 146.26 381.406 146.594" fill="#F27932"/>
<path d="M66.5068 154.43V95.6868H223.896V180.55H141.477" fill="white"/>
<path d="M66.5068 154.43V95.6868H223.896V180.55H141.477" stroke="#C2D9F0" stroke-miterlimit="10"/>
<path d="M239.875 80.2924H82.4854V165.1H239.875V80.2924Z" fill="white" stroke="#F7C689" stroke-miterlimit="10"/>
<path d="M192.539 82.0151C193.92 85.1829 192.959 88.7953 190.136 90.9628C188.634 92.0743 186.591 92.63 184.849 91.9075C183.107 91.1851 182.266 89.2955 181.906 87.5171C181.365 84.8495 181.245 79.7365 184.309 78.1248C187.372 76.5132 191.337 79.5142 192.539 82.0151Z" fill="#4B4065"/>
<path d="M153.19 131.088L157.996 94.4085L156.855 93.297C151.929 88.6286 152.049 81.1259 157.095 76.6243C159.558 74.4013 162.862 73.1787 166.346 73.2898L175.838 73.5121C182.386 73.6788 187.732 78.4027 188.273 84.4049C188.393 86.0722 188.513 87.6838 188.633 89.3511C188.633 90.0736 188.633 90.7405 188.693 91.463C188.873 92.1299 192.237 94.1306 191.517 96.2424C191.216 96.8538 190.796 97.354 190.255 97.743C189.054 98.7989 189.174 99.8548 189.234 101.244C189.234 102.745 189.234 104.245 189.174 105.746C189.114 107.246 189.294 109.692 188.213 110.914C185.509 113.971 178.841 113.36 177.46 112.859L181.124 137.424C181.064 137.424 157.035 146.538 153.19 131.088Z" fill="#C2D9F0"/>
<path d="M178.061 87.6839C179.983 85.183 182.746 85.0163 185.089 87.2949C182.746 87.4616 180.403 87.5728 178.061 87.6839Z" fill="#4B4065"/>
<path d="M178.301 87.795C179.022 86.7391 180.164 86.0722 181.485 85.9055C182.807 85.961 184.068 86.5168 184.909 87.4616L185.09 87.1281C182.747 87.2393 180.404 87.406 178.061 87.5172C177.761 87.5172 177.761 87.9618 178.061 87.9618C180.404 87.8506 182.747 87.6839 185.09 87.5727C185.21 87.5727 185.33 87.4616 185.33 87.3504C185.33 87.2949 185.33 87.2393 185.27 87.2393C184.249 86.2945 182.927 85.5164 181.425 85.572C179.984 85.7387 178.722 86.5168 177.881 87.6283C177.701 87.8506 178.121 88.0173 178.301 87.795Z" fill="#4B4065"/>
<path d="M183.587 94.9086L185.149 91.9076C183.107 90.5738 180.463 90.3514 178.181 91.2962C178.481 94.1306 181.184 94.9086 183.587 94.9086Z" fill="white"/>
<path d="M185.149 91.9632C184.548 91.6297 183.947 91.3519 183.347 91.074C182.506 91.1851 181.725 91.5742 181.184 92.1855C180.704 92.8524 180.523 93.6304 180.583 94.4085C181.545 94.7975 182.566 94.9642 183.527 94.9087L185.149 91.9632Z" fill="#4B4065"/>
<path d="M153.131 102.8C147.604 99.188 144.18 93.4081 144.541 87.0725C144.601 86.0166 144.661 82.9044 145.622 82.1819C146.583 81.4594 149.106 82.2375 150.428 81.6817C151.869 81.0704 151.329 79.4587 151.569 78.236C151.929 76.2909 153.251 74.568 155.173 73.6233C157.336 72.6229 159.739 72.8452 162.022 73.1231C164.064 73.2898 166.107 73.0119 168.029 72.2895C168.81 72.0116 171.994 71.2335 172.775 70.8445C174.637 69.8997 172.775 68.2324 174.216 67.0654C175.238 66.2873 176.86 66.1206 178.061 66.1206C180.584 66.0094 183.047 66.7875 184.969 68.2324C190.436 72.6229 187.612 79.1252 186.892 80.2367C186.892 80.2367 172.534 82.2375 171.693 82.5709C169.23 83.4601 169.05 86.5168 170.071 88.4619C170.492 89.24 171.093 89.9069 171.513 90.6293C172.054 91.3518 172.294 92.1855 172.174 93.0747C171.813 95.0754 169.411 94.2973 167.909 94.9642C166.227 95.7423 164.725 96.7426 163.463 97.9653C161.962 99.3547 160.64 100.966 158.898 102.189C157.336 103.412 154.993 104.023 153.131 102.8Z" fill="#4B4065"/>
<path opacity="0.26" d="M170.912 102.245C168.269 106.19 161 108.914 155.954 109.303L156.675 103.301C160.94 102.689 166.707 102.912 170.912 102.245Z" fill="#495894"/>
<path d="M156.795 93.297L160.579 72.2895L168.389 72.0116C168.389 72.0116 166.767 92.5745 166.707 92.2966C166.647 92.0187 156.795 93.297 156.795 93.297Z" fill="white"/>
<path opacity="0.46" d="M160.82 83.5157C160.039 83.5157 159.258 83.5713 158.537 83.6825L156.795 93.297C156.795 93.297 166.587 92.0744 166.647 92.2967C166.647 92.4078 166.947 89.4067 167.248 85.6832C165.445 84.3494 163.163 83.5713 160.82 83.5157Z" fill="#4B4065"/>
<path d="M178.301 118.695C172.775 117.306 169.411 113.415 166.647 108.747C169.951 110.692 173.676 111.748 177.4 112.86L178.301 118.695Z" fill="#B9C6E4"/>
<path d="M162.922 105.468C168.762 105.468 173.495 101.089 173.495 95.6868C173.495 90.2847 168.762 85.9055 162.922 85.9055C157.083 85.9055 152.35 90.2847 152.35 95.6868C152.35 101.089 157.083 105.468 162.922 105.468Z" fill="white"/>
<path d="M162.922 101.467C166.373 101.467 169.17 98.8788 169.17 95.6867C169.17 92.4946 166.373 89.9069 162.922 89.9069C159.472 89.9069 156.675 92.4946 156.675 95.6867C156.675 98.8788 159.472 101.467 162.922 101.467Z" fill="white" stroke="#C2D9F0" stroke-miterlimit="10"/>
<path d="M170.912 102.245C175.778 103.467 180.764 105.023 185.57 106.246C187.372 106.691 189.234 107.135 191.036 106.857C192.839 106.58 194.641 105.301 194.821 103.578" stroke="#4B4065" stroke-miterlimit="10"/>
<path d="M194.941 103.856C195.936 103.856 196.743 103.11 196.743 102.189C196.743 101.268 195.936 100.522 194.941 100.522C193.946 100.522 193.139 101.268 193.139 102.189C193.139 103.11 193.946 103.856 194.941 103.856Z" stroke="#4B4065" stroke-miterlimit="10"/>
<path opacity="0.21" d="M177.641 104.634C180.096 104.634 182.086 102.793 182.086 100.522C182.086 98.2504 180.096 96.4092 177.641 96.4092C175.186 96.4092 173.195 98.2504 173.195 100.522C173.195 102.793 175.186 104.634 177.641 104.634Z" fill="#EF749B"/>
<path d="M277.841 68.8994H213.504V103.301V105.246V120.418L232.126 105.246H277.841V68.8994Z" fill="white" stroke="#FBD7AD" stroke-miterlimit="10"/>
<path d="M234.409 88.6842C235.935 88.6842 237.172 87.5397 237.172 86.1278C237.172 84.7159 235.935 83.5713 234.409 83.5713C232.883 83.5713 231.646 84.7159 231.646 86.1278C231.646 87.5397 232.883 88.6842 234.409 88.6842Z" fill="#F7C689"/>
<path d="M246.664 88.6842C248.19 88.6842 249.427 87.5397 249.427 86.1278C249.427 84.7159 248.19 83.5713 246.664 83.5713C245.138 83.5713 243.9 84.7159 243.9 86.1278C243.9 87.5397 245.138 88.6842 246.664 88.6842Z" fill="#F7C689"/>
<path d="M258.858 88.6842C260.384 88.6842 261.621 87.5397 261.621 86.1278C261.621 84.7159 260.384 83.5713 258.858 83.5713C257.332 83.5713 256.095 84.7159 256.095 86.1278C256.095 87.5397 257.332 88.6842 258.858 88.6842Z" fill="#F7C689"/>
<path d="M452.592 281.587L467.55 297.148L496.385 301.26" stroke="white" stroke-miterlimit="10"/>
<path d="M484.129 306.651L483.048 302.316" stroke="white" stroke-miterlimit="10"/>
<path d="M477.942 306.429L476.801 302.094" stroke="white" stroke-miterlimit="10"/>
<path d="M489.717 300.204L491.699 306.762" stroke="white" stroke-miterlimit="10"/>
<path opacity="0.3" d="M437.274 285.532L449.108 305.039L442.44 305.428L434.57 285.31L437.274 285.532Z" fill="#F27932"/>
<path d="M406.096 205.059L418.771 230.346L363.925 215.618L365.246 202.503" fill="#495894"/>
<path opacity="0.3" d="M363.083 292.479L383.688 295.258L382.246 288.478L362.002 287.978L363.083 292.479Z" fill="#F27932"/>
<path d="M412.884 223.121C407.056 220.454 355.935 198.279 355.935 198.279C355.574 198.112 355.214 197.945 354.854 197.779L354.733 197.723C347.645 195 331.606 196.612 333.408 207.115C336.171 223.066 360.2 287.255 360.2 287.255C361.161 289.311 382.607 288.478 382.607 288.478C382.607 288.478 382.187 281.809 381.045 272.028C389.395 275.473 398.646 277.418 407.417 275.362C443.881 266.581 428.262 230.124 412.884 223.121Z" fill="#495894"/>
<path d="M426.64 152.263C419.311 147.427 404.473 150.706 400.328 150.262C381.766 169.824 382.607 171.658 382.607 171.658C382.607 171.658 377.441 157.042 376.78 153.596C370.292 154.263 363.444 156.486 362.843 170.825C362.723 174.604 362.843 190.221 372.335 189.498L370.112 203.003C372.875 205.059 407.597 207.115 407.597 207.115L404.834 201.058L411.021 175.882L430.124 166.045C429.944 161.933 430.425 154.708 426.64 152.263Z" fill="#3F70F9"/>
<path d="M399.667 232.791C399.667 232.791 389.695 246.907 389.635 248.297C389.575 249.686 397.024 262.469 398.346 263.191C399.667 263.913 400.508 261.746 399.968 260.801L401.529 262.913C401.77 263.302 402.31 263.358 402.731 263.135C402.791 263.08 402.851 263.024 402.911 262.969C403.512 262.191 404.173 261.024 403.452 259.745C403.452 259.745 406.275 258.801 405.314 256.689C404.353 254.577 402.13 249.13 402.13 249.13C402.13 249.13 412.342 240.461 413.604 239.127C414.865 237.793 414.205 233.569 414.205 233.569" fill="#FBD7AD"/>
<path d="M399.968 260.801L393.901 250.353C393.721 250.075 393.721 249.742 393.901 249.464L395.042 247.352" stroke="#F27932" stroke-linecap="round" stroke-linejoin="round"/>
<path d="M403.392 259.745L397.565 250.131C397.385 249.797 397.385 249.408 397.625 249.075L399.547 246.407" stroke="#F27932" stroke-linecap="round" stroke-linejoin="round"/>
<path d="M389.576 248.908C388.675 253.521 387.353 258.022 385.671 262.413C386.212 262.969 387.053 263.024 387.713 262.58C388.254 262.135 388.674 261.579 388.915 260.912C390.477 257.633 391.798 254.243 392.819 250.853" fill="#FBD7AD"/>
<path d="M412.403 202.725L393.06 240.072H420.032L435.771 198.168L429.824 159.098L410.721 164.767L412.403 202.725Z" fill="#3F70F9"/>
<path d="M213.504 120.418L231.826 113.415H239.876V105.246H232.126L213.504 120.418Z" fill="#F7C689"/>
<path d="M381.045 272.028C381.045 272.028 382.427 241.628 370.052 226.567" stroke="#4B4065" stroke-miterlimit="10"/>
<path d="M365.246 202.503L398.827 228.901" stroke="#4B4065" stroke-miterlimit="10"/>
<path d="M364.826 175.938C362.062 180.161 363.504 185.719 368.07 188.275C369.331 188.998 370.833 189.442 372.335 189.554C371.734 193.666 371.434 198.89 370.833 203.003" stroke="#4B4065" stroke-miterlimit="10"/>
<path d="M411.082 175.938L410.181 163.6" stroke="#4B4065" stroke-miterlimit="10"/>
<path d="M92.458 96.965H145.202" stroke="#F7C689" stroke-miterlimit="10"/>
<path d="M185.991 165.1L180.224 127.254C180.224 127.254 150.728 120.473 150.007 121.251C149.286 122.029 133.367 165.1 133.367 165.1H185.991Z" fill="#F7C689"/>
<path d="M188.814 100.688H183.468C183.888 102.856 185.51 104.579 187.853 104.634L188.814 100.688Z" fill="white"/>
<path d="M179.442 125.086L165.325 121.64L154.993 119.084C152.77 118.528 150.067 117.472 147.784 117.361C142.798 117.083 137.872 120.807 134.808 124.141C131.204 127.92 129.042 132.644 128.561 137.646C128.261 140.536 128.801 143.482 130.183 146.094C131.625 148.65 134.328 150.706 137.392 151.151C141.476 151.707 145.441 149.373 147.784 146.26C150.127 143.148 151.088 139.369 151.929 135.645C152.169 134.423 152.47 133.2 153.311 132.2C155.413 129.699 159.979 131.422 162.742 131.533C168.269 131.811 175.357 132.7 180.704 130.866C180.584 130.81 179.863 126.531 179.442 125.086Z" fill="#F7C689"/>
<path opacity="0.85" d="M138.834 150.484C141.057 144.815 143.52 139.036 148.265 134.867C153.011 130.755 160.58 128.754 166.107 131.978C171.273 134.923 172.895 141.203 172.955 146.816C173.015 152.429 171.814 158.154 173.195 163.6" stroke="#F27932" stroke-miterlimit="10"/>
<path d="M180.223 215.452C180.403 215.452 180.524 215.341 180.524 215.174C180.524 215.007 180.403 214.896 180.223 214.896C180.043 214.896 179.923 215.007 179.923 215.174C179.923 215.341 180.043 215.452 180.223 215.452Z" fill="#C2D9F0"/>
<path d="M148.806 181.217C151.809 173.381 161.721 169.269 170.612 170.158C179.503 171.047 187.372 176.049 193.8 181.773C200.228 187.497 205.754 194.166 212.422 199.668C219.09 205.17 227.44 209.616 236.391 209.616C245.823 209.616 254.713 204.559 260.48 197.612C266.247 190.665 269.191 182.107 270.873 173.548" stroke="#FBD7AD" stroke-miterlimit="10" stroke-dasharray="4 4"/>
<path d="M78.4011 193.833C78.2209 192.666 77.8604 191.499 77.3198 190.387C74.0759 183.774 65.7258 180.828 58.5772 183.829C52.1495 186.497 48.8455 193.11 50.7678 199.335C50.8879 199.779 51.0682 200.224 51.2484 200.669C52.8703 204.503 52.9905 208.727 51.6088 212.673C48.3048 222.732 54.4322 233.403 65.3053 236.515C76.1784 239.627 87.7123 233.903 91.0764 223.844C92.2177 220.342 92.2778 216.563 91.1965 213.006C90.0551 209.338 87.7724 206.059 84.6486 203.614C81.3446 201.169 79.122 197.668 78.4011 193.833Z" fill="#FBD7AD"/>
<path d="M107.476 248.352C107.296 258.189 98.5254 266.081 87.8325 265.914C77.44 265.692 69.0298 257.967 68.8496 248.352H107.476Z" fill="#B9C6E4"/>
<path d="M116.517 288.798C117.038 274.319 104.774 262.191 89.1237 261.709C73.4735 261.227 60.3641 272.573 59.843 287.052C59.3219 301.53 71.5864 313.658 87.2366 314.141C102.887 314.623 115.996 303.276 116.517 288.798Z" fill="#B9C6E4"/>
<path d="M70.1709 213.396L79.362 248.352" stroke="#F27932" stroke-miterlimit="10"/>
<path d="M94.9809 193.833C96.1222 186.664 103.331 181.717 111.02 182.773C111.14 182.773 111.2 182.773 111.321 182.829C119.01 184.052 124.236 190.776 122.975 197.945C122.915 198.446 122.794 198.89 122.614 199.39C122.494 199.835 122.314 200.28 122.134 200.724C120.512 204.559 120.391 208.783 121.773 212.729C125.077 222.788 118.95 233.458 108.077 236.57C97.2035 239.627 85.6696 233.958 82.3056 223.899C79.9027 216.619 82.4257 208.671 88.7333 203.725C92.0373 201.169 94.26 197.668 94.9809 193.833Z" fill="white" stroke="#EF749B" stroke-miterlimit="10"/>
<path d="M103.21 213.396L94.0791 248.352" stroke="#EF749B" stroke-miterlimit="10"/>
<path d="M105.253 318.989H71.1318L75.397 311.319H100.387L105.253 318.989Z" fill="white" stroke="#B9C6E4" stroke-miterlimit="10"/>
<path d="M77.9202 263.469C78.7012 263.469 98.4049 263.469 98.4049 263.469L70.1709 267.637C70.1709 267.637 74.3159 263.58 77.9202 263.469Z" fill="#495894"/>
<path opacity="0.55" d="M171.814 273.695L161.842 306.095H173.916L174.637 273.695H171.814Z" fill="#495894"/>
<path d="M253.392 275.695H173.916V318.155H253.392V275.695Z" fill="#FBD7AD"/>
<path opacity="0.37" d="M173.916 284.365L253.392 287.144V282.476H173.916V284.365Z" fill="#F27932"/>
<path d="M221.073 282.476C221.073 286.366 217.709 289.478 213.504 289.478C209.359 289.478 205.935 286.366 205.935 282.476" fill="white"/>
<path d="M255.134 273.695H171.813V282.476H255.134V273.695Z" fill="white" stroke="#F7C689" stroke-miterlimit="10"/>
<path d="M405.014 119.862C405.194 122.752 403.993 125.086 401.049 126.031C400.689 126.142 400.268 126.253 399.908 126.253C397.144 126.42 394.621 124.808 393.84 122.363C393.179 120.029 394.321 117.472 393.48 115.194C392.759 113.415 391.137 112.081 389.155 111.637C387.172 111.248 385.07 111.47 383.268 112.304C386.091 110.47 389.515 109.525 392.939 109.581C394.922 109.581 396.904 110.081 398.586 111.026C402.971 113.582 404.834 116.639 405.014 119.862Z" fill="#ED4F2E"/>
</g>
<defs>
<clipPath id="clip0_221_109">
<rect width="498" height="311" fill="white" transform="translate(28 39.5)"/>
</clipPath>
</defs>
</svg>
